name rise49.5252peak65.1548fall88.8305.mot
datacolumns 19
datarows 14
range 18.36658800000000 18.38826000000000
endheader
time	ground_force1_vx	ground_force1_vy	ground_force1_vz	ground_force1_px	ground_force1_py	ground_force1_pz	ground_force2_vx	ground_force2_vy	ground_force2_vz	ground_force2_px	ground_force2_py	ground_force2_pz	ground_torque1_x	ground_torque1_y	ground_torque1_z	ground_torque2_x	ground_torque2_y	ground_torque2_z	
18.36658800000000	-55.85618200000000	792.25222900000006	61.23607300000000	0.17599600000000	0.00000000000000	0.11319800000000	-9.84448200000000	76.46366900000000	10.20074300000000	0.42818200000000	0.00000000000000	-0.07474700000000	0.00000000000000	32.77982600000000	0.00000000000000	0.00000000000000	7.86735000000000	0.00000000000000	
18.36825500000000	-55.86063200000000	788.49210500000004	60.94913100000000	0.17553100000000	0.00000000000000	0.11318900000000	-9.82168600000000	81.31991700000000	10.38913200000000	0.43021300000000	0.00000000000000	-0.07489200000000	0.00000000000000	32.58415200000000	0.00000000000000	0.00000000000000	8.07083900000000	0.00000000000000	
18.36992800000000	-55.85654900000000	784.58243600000003	60.62737500000000	0.17507500000000	0.00000000000000	0.11317500000000	-9.69692200000000	86.03597800000000	10.49894800000000	0.43209800000000	0.00000000000000	-0.07504800000000	0.00000000000000	32.37794700000000	0.00000000000000	0.00000000000000	8.21792100000000	0.00000000000000	
18.37158800000000	-55.84475700000000	780.52573199999995	60.27073800000000	0.17462900000000	0.00000000000000	0.11315700000000	-9.48277500000000	90.66100100000000	10.54104000000000	0.43385000000000	0.00000000000000	-0.07521200000000	0.00000000000000	32.16145200000000	0.00000000000000	0.00000000000000	8.31641200000000	0.00000000000000	
18.37325800000000	-55.82608700000000	776.32461200000000	59.87923300000000	0.17419200000000	0.00000000000000	0.11313400000000	-9.19204800000000	95.24726000000000	10.52652400000000	0.43547900000000	0.00000000000000	-0.07538500000000	0.00000000000000	31.93493100000000	0.00000000000000	0.00000000000000	8.37445900000000	0.00000000000000	
18.37492500000000	-55.80137700000000	771.98180300000001	59.45296000000000	0.17376300000000	0.00000000000000	0.11310700000000	-8.83681300000000	99.84593599999999	10.46593800000000	0.43699600000000	0.00000000000000	-0.07556500000000	0.00000000000000	31.69866900000000	0.00000000000000	0.00000000000000	8.39988300000000	0.00000000000000	
18.37659500000000	-55.77146700000000	767.50011700000005	58.99210300000000	0.17334100000000	0.00000000000000	0.11307400000000	-8.42767700000000	104.50368200000000	10.36857900000000	0.43841000000000	0.00000000000000	-0.07575300000000	0.00000000000000	31.45297100000000	0.00000000000000	0.00000000000000	8.39965400000000	0.00000000000000	
18.37827100000000	-55.73719300000000	762.88244599999996	58.49693000000000	0.17292700000000	0.00000000000000	0.11303700000000	-7.97329500000000	109.26010900000000	10.24204900000000	0.43972700000000	0.00000000000000	-0.07594600000000	0.00000000000000	31.19816300000000	0.00000000000000	0.00000000000000	8.37953200000000	0.00000000000000	
18.37992200000000	-55.69938600000000	758.13175000000001	57.96779100000000	0.17252000000000	0.00000000000000	0.11299500000000	-7.48011000000000	114.14622700000000	10.09201100000000	0.44095600000000	0.00000000000000	-0.07614500000000	0.00000000000000	30.93458800000000	0.00000000000000	0.00000000000000	8.34385400000000	0.00000000000000	
18.38159000000000	-55.65886700000000	753.25104099999999	57.40512300000000	0.17212000000000	0.00000000000000	0.11294700000000	-6.95231300000000	119.18376800000000	9.92213200000000	0.44210200000000	0.00000000000000	-0.07634900000000	0.00000000000000	30.66260700000000	0.00000000000000	0.00000000000000	8.29547500000000	0.00000000000000	
18.38326000000000	-55.61643700000000	748.24337600000001	56.80944100000000	0.17172500000000	0.00000000000000	0.11289400000000	-6.39197600000000	124.38531300000000	9.73418600000000	0.44317200000000	0.00000000000000	-0.07655700000000	0.00000000000000	30.38259600000000	0.00000000000000	0.00000000000000	8.23582800000000	0.00000000000000	
18.38492500000000	-55.57288300000000	743.11184200000002	56.18134200000000	0.17133600000000	0.00000000000000	0.11283600000000	-5.79932300000000	129.75503599999999	9.52827900000000	0.44417000000000	0.00000000000000	-0.07676900000000	0.00000000000000	30.09494500000000	0.00000000000000	0.00000000000000	8.16508000000000	0.00000000000000	
18.38660500000000	-55.52896200000000	737.85954800000002	55.52150200000000	0.17095200000000	0.00000000000000	0.11277200000000	-5.17309000000000	135.28991500000001	9.30315900000000	0.44510100000000	0.00000000000000	-0.07698400000000	0.00000000000000	29.80005800000000	0.00000000000000	0.00000000000000	8.08235800000000	0.00000000000000	
18.38826000000000	-55.48540400000000	732.48961099999997	54.83067100000000	0.17057200000000	0.00000000000000	0.11270300000000	-4.51093500000000	140.98122400000000	9.05656800000000	0.44596900000000	0.00000000000000	-0.07720300000000	0.00000000000000	29.49834700000000	0.00000000000000	0.00000000000000	7.98601400000000	0.00000000000000	
